<?xml version="1.0" encoding="UTF-8"?>
<svg xmlns="http://www.w3.org/2000/svg" width="256" height="256" viewBox="0 0 256 256" role="img" aria-label="Demirciler Paslanmaz">
  <defs>
    <linearGradient id="g" x1="0" y1="0" x2="1" y2="1">
      <stop offset="0" stop-color="#ff6a1a"/>
      <stop offset="1" stop-color="#ffc396"/>
    </linearGradient>
  </defs>

  <rect x="20" y="20" width="216" height="216" rx="64" fill="url(#g)"/>

  <!-- Monogram (scaled version of logo-mark.svg) -->
  <g transform="translate(0,0) scale(4.571428571)">
    <path fill="#1b120a" fill-rule="evenodd" d="
      M14 14
      H26
      A14 14 0 0 1 26 42
      H14
      A6 6 0 0 1 8 36
      V20
      A6 6 0 0 1 14 14
      Z
      M17 20
      H25
      A8 8 0 0 1 25 36
      H17
      Z

      M30 14
      H39
      A9 9 0 0 1 39 32
      H34
      V42
      H30
      Z
      M34 20
      H38.2
      A3.8 3.8 0 0 1 38.2 27.6
      H34
      Z
    "/>
    <circle cx="44" cy="41" r="2.6" fill="#00b3c6"/>
  </g>
</svg>

