<?xml version="1.0" encoding="UTF-8"?>
<svg xmlns="http://www.w3.org/2000/svg" width="256" height="256" viewBox="0 0 256 256" role="img" aria-label="Demirciler Paslanmaz logo">
  <defs>
    <linearGradient id="g" x1="0" y1="0" x2="1" y2="1">
      <stop offset="0" stop-color="#ff6a1a"/>
      <stop offset="1" stop-color="#ffc396"/>
    </linearGradient>
    <filter id="s" x="-40%" y="-40%" width="180%" height="180%">
      <feDropShadow dx="0" dy="18" stdDeviation="16" flood-color="#ff6a1a" flood-opacity="0.28"/>
    </filter>
  </defs>

  <rect x="24" y="24" width="208" height="208" rx="56" fill="url(#g)" filter="url(#s)"/>

  <!-- Monogram -->
  <g fill="#1b120a">
    <path d="M78 77h64c33 0 56 20 56 51s-23 51-56 51H78V77zm28 24v54h35c17 0 29-10 29-27s-12-27-29-27h-35z"/>
    <path d="M78 179V77h28v102H78z" opacity="0"/>
    <path d="M118 97h28c19 0 32 11 32 27 0 17-13 28-32 28h-28V97zm26 20h-0v16h0c6 0 10-3 10-8 0-5-4-8-10-8z"/>
  </g>

  <!-- DP letters (crisp) -->
  <text x="128" y="154" text-anchor="middle" font-family="ui-sans-serif, system-ui, -apple-system, Segoe UI, Arial" font-size="86" font-weight="900" letter-spacing="-2" fill="#1b120a">DP</text>
</svg>

